<svg id="svg" version="1.1" xmlns="http://www.w3.org/2000/svg" xmlns:xlink="http://www.w3.org/1999/xlink" width="400" height="91.42857142857143" viewBox="0, 0, 400,91.42857142857143">
<g id="svgg">
<path id="path0" d="M21.417 20.683 C 14.254 21.577,8.655 27.392,8.191 34.417 C 7.886 39.025,8.113 62.835,8.474 64.196 C 10.071 70.215,15.490 75.320,20.526 75.550 L 21.250 75.583 21.250 72.507 L 21.250 69.431 20.553 69.229 C 13.543 67.200,12.217 57.160,18.477 53.516 C 20.861 52.127,17.983 52.260,47.696 52.167 L 74.142 52.083 74.613 51.735 C 74.872 51.543,75.308 51.056,75.583 50.651 L 76.083 49.917 76.083 36.404 L 76.083 22.890 75.583 22.085 C 75.272 21.584,74.831 21.149,74.417 20.932 L 73.750 20.583 48.083 20.571 C 33.967 20.564,21.967 20.614,21.417 20.683 M69.793 36.331 L 69.750 45.828 45.417 45.878 C 21.172 45.928,21.079 45.930,19.833 46.283 C 17.917 46.827,16.675 47.322,15.636 47.956 C 15.115 48.273,14.607 48.483,14.506 48.420 C 14.280 48.281,14.289 35.640,14.516 34.000 C 14.953 30.844,17.965 27.616,21.036 27.011 C 21.429 26.933,32.569 26.862,45.793 26.852 L 69.836 26.833 69.793 36.331 M332.585 34.100 C 331.041 34.665,330.250 35.971,330.365 37.768 C 330.581 41.173,335.743 42.042,337.185 38.917 C 338.569 35.918,335.733 32.948,332.585 34.100 M145.542 34.625 L 143.167 34.676 143.167 55.171 C 143.167 68.716,143.223 75.671,143.333 75.679 C 143.425 75.686,144.606 75.697,145.958 75.704 L 148.417 75.716 148.500 71.816 C 148.546 69.657,148.658 67.801,148.750 67.657 C 149.108 67.099,154.371 62.333,154.629 62.333 C 154.783 62.333,155.796 63.502,157.000 65.070 C 157.229 65.368,157.754 66.025,158.167 66.528 C 158.579 67.032,159.442 68.102,160.083 68.906 C 160.725 69.710,161.917 71.204,162.733 72.226 C 163.549 73.247,164.533 74.446,164.920 74.890 L 165.625 75.696 168.740 75.698 C 170.453 75.699,171.895 75.660,171.944 75.611 C 172.053 75.502,171.542 74.783,169.537 72.223 C 168.687 71.138,167.668 69.837,167.273 69.333 C 165.841 67.506,161.924 62.556,161.007 61.417 C 159.960 60.115,158.833 58.581,158.833 58.458 C 158.833 58.414,160.165 57.075,161.792 55.483 C 163.419 53.891,165.772 51.575,167.021 50.336 C 168.269 49.097,169.645 47.754,170.077 47.352 C 171.124 46.378,171.024 46.339,167.443 46.336 L 164.470 46.333 162.693 47.937 C 158.316 51.890,155.853 54.142,152.555 57.208 C 150.608 59.019,148.945 60.500,148.859 60.500 C 148.525 60.500,148.500 59.591,148.500 47.436 C 148.500 35.149,148.470 34.352,148.008 34.537 C 147.958 34.557,146.848 34.596,145.542 34.625 M218.788 34.629 L 216.326 34.676 216.371 52.129 L 216.417 69.583 216.897 70.833 C 218.457 74.895,222.774 76.897,227.667 75.828 C 229.373 75.455,229.194 75.748,229.067 73.537 C 228.924 71.037,228.878 70.940,227.977 71.258 C 225.887 71.995,223.178 71.156,222.339 69.510 C 221.708 68.274,221.669 67.194,221.668 50.812 C 221.667 38.252,221.623 34.843,221.458 34.729 C 221.344 34.649,220.142 34.604,218.788 34.629 M79.833 55.167 L 79.833 75.667 80.208 75.669 C 80.415 75.671,81.596 75.683,82.833 75.696 L 85.083 75.721 85.128 71.705 L 85.173 67.689 86.890 66.097 C 87.834 65.221,89.117 64.016,89.741 63.419 C 91.201 62.022,91.227 62.023,92.284 63.445 C 92.632 63.913,93.641 65.186,94.525 66.273 C 95.410 67.360,97.005 69.337,98.069 70.667 C 102.553 76.268,102.207 75.900,102.865 75.769 C 103.146 75.713,104.568 75.667,106.027 75.667 L 108.679 75.667 108.006 74.708 C 107.636 74.181,107.033 73.375,106.666 72.917 C 106.299 72.458,105.588 71.558,105.086 70.917 C 104.583 70.275,103.723 69.188,103.174 68.500 C 102.625 67.813,101.858 66.837,101.470 66.333 C 101.082 65.829,100.311 64.857,99.757 64.174 C 98.393 62.490,98.119 62.139,96.617 60.149 L 95.318 58.428 98.718 55.089 C 100.589 53.252,103.293 50.601,104.728 49.196 C 106.163 47.791,107.295 46.572,107.242 46.488 C 107.189 46.402,105.780 46.333,104.080 46.333 L 101.013 46.333 98.602 48.542 C 97.276 49.756,93.730 52.993,90.721 55.734 L 85.250 60.719 85.207 47.693 L 85.165 34.667 82.499 34.667 L 79.833 34.667 79.833 55.167 M370.096 35.371 C 370.034 35.763,369.991 39.233,370.001 43.083 C 370.011 46.933,370.015 50.156,370.010 50.245 C 370.004 50.334,369.569 49.985,369.042 49.469 C 365.325 45.836,359.519 44.914,353.866 47.058 C 342.531 51.356,341.794 69.016,352.721 74.480 C 358.147 77.193,365.058 76.445,368.838 72.734 C 370.212 71.385,370.121 71.323,370.191 73.653 C 370.262 76.041,369.917 75.785,372.917 75.675 L 375.417 75.583 375.417 55.167 L 375.417 34.750 372.814 34.704 L 370.211 34.658 370.096 35.371 M260.583 45.997 C 255.323 46.609,251.180 49.200,248.847 53.333 C 246.032 58.324,246.428 65.623,249.760 70.167 C 255.460 77.939,268.570 78.128,274.014 70.517 C 274.429 69.936,274.491 69.755,274.310 69.642 C 274.186 69.563,273.265 68.980,272.266 68.345 L 270.448 67.190 269.182 68.470 C 266.370 71.314,262.475 72.074,258.334 70.588 C 250.843 67.900,250.234 55.451,257.419 51.882 C 261.640 49.786,266.100 50.432,269.156 53.583 C 270.572 55.044,270.346 54.975,271.404 54.273 C 271.870 53.964,272.686 53.432,273.220 53.089 C 274.431 52.312,274.477 52.185,273.866 51.301 C 271.270 47.546,265.854 45.383,260.583 45.997 M293.250 45.943 C 283.383 46.943,277.501 55.245,279.747 65.000 C 282.554 77.185,299.778 80.208,307.285 69.833 C 310.830 64.935,310.731 56.871,307.064 51.810 C 304.235 47.906,298.387 45.422,293.250 45.943 M119.500 46.351 C 115.703 47.189,113.025 49.100,111.906 51.769 C 111.196 53.462,111.185 56.578,111.884 58.076 C 113.398 61.324,115.223 62.194,124.000 63.851 C 128.098 64.624,129.078 65.112,129.744 66.708 C 131.024 69.777,126.716 72.000,120.944 71.250 C 117.927 70.858,113.816 69.532,113.158 68.739 C 112.766 68.267,112.513 68.528,111.507 70.444 C 110.293 72.755,110.292 72.728,111.667 73.531 C 115.847 75.970,123.642 76.754,128.692 75.242 C 132.893 73.985,135.239 71.151,135.239 67.333 C 135.239 62.393,132.680 60.507,123.917 58.991 C 117.611 57.899,115.604 56.198,117.094 53.208 C 118.621 50.144,126.215 49.669,130.956 52.342 C 131.840 52.840,132.333 52.960,132.333 52.678 C 132.333 52.592,132.785 51.683,133.338 50.658 C 134.495 48.511,134.500 48.542,132.917 47.824 C 129.265 46.168,123.297 45.513,119.500 46.351 M177.500 55.657 C 177.500 67.044,177.713 68.604,179.646 71.377 C 183.575 77.016,193.556 77.732,198.906 72.759 C 200.109 71.640,200.083 71.617,200.083 73.807 L 200.083 75.583 202.462 75.667 C 203.770 75.712,204.913 75.725,205.003 75.694 C 205.108 75.659,205.167 70.442,205.167 61.073 L 205.167 46.506 204.792 46.414 C 204.585 46.362,203.404 46.342,202.167 46.369 L 199.917 46.417 199.827 55.167 C 199.729 64.744,199.776 64.276,198.661 66.735 C 196.169 72.231,186.948 72.884,184.086 67.767 C 182.944 65.723,182.946 65.746,182.843 55.583 L 182.750 46.417 180.125 46.371 L 177.500 46.325 177.500 55.657 M331.264 46.608 C 331.116 46.992,331.157 75.215,331.305 75.455 C 331.535 75.826,336.374 75.768,336.522 75.392 C 336.745 74.824,336.692 46.758,336.467 46.533 C 336.124 46.191,331.398 46.258,331.264 46.608 M297.460 51.083 C 302.386 52.360,305.347 57.711,304.263 63.376 C 302.340 73.426,288.198 74.199,285.232 64.417 C 282.715 56.114,289.275 48.961,297.460 51.083 M363.000 51.086 C 369.435 52.755,372.181 61.152,368.274 67.210 C 364.605 72.897,355.323 72.591,351.840 66.667 C 350.012 63.556,349.891 59.229,351.540 55.928 C 353.606 51.794,358.218 49.845,363.000 51.086 M236.333 68.851 C 232.825 70.958,234.060 75.982,238.090 75.996 C 241.756 76.010,243.176 71.105,240.103 69.042 C 239.072 68.350,237.316 68.261,236.333 68.851 M317.151 68.885 C 314.602 70.219,314.608 74.338,317.160 75.625 C 320.528 77.323,323.844 73.976,322.273 70.463 C 321.477 68.681,318.998 67.918,317.151 68.885 M40.278 69.611 C 39.923 69.966,40.168 75.661,40.542 75.752 C 41.695 76.035,73.922 75.747,74.468 75.449 C 76.838 74.156,76.371 70.415,73.749 69.687 C 73.015 69.483,40.480 69.409,40.278 69.611 " stroke="none" fill="#3f4c5b" fill-rule="evenodd">
</path>
<path id="path1" d="M0.000 45.667 L 0.000 91.333 200.000 91.333 L 400.000 91.333 400.000 45.667 L 400.000 0.000 200.000 0.000 L 0.000 0.000 0.000 45.667 M74.417 20.932 C 74.831 21.149,75.272 21.584,75.583 22.085 L 76.083 22.890 76.083 36.404 L 76.083 49.917 75.583 50.651 C 75.308 51.056,74.872 51.543,74.613 51.735 L 74.142 52.083 47.696 52.167 C 17.983 52.260,20.861 52.127,18.477 53.516 C 12.217 57.160,13.543 67.200,20.553 69.229 L 21.250 69.431 21.250 72.507 L 21.250 75.583 20.526 75.550 C 15.490 75.320,10.071 70.215,8.474 64.196 C 8.113 62.835,7.886 39.025,8.191 34.417 C 8.655 27.392,14.254 21.577,21.417 20.683 C 21.967 20.614,33.967 20.564,48.083 20.571 L 73.750 20.583 74.417 20.932 M21.036 27.011 C 17.965 27.616,14.953 30.844,14.516 34.000 C 14.289 35.640,14.280 48.281,14.506 48.420 C 14.607 48.483,15.115 48.273,15.636 47.956 C 16.675 47.322,17.917 46.827,19.833 46.283 C 21.079 45.930,21.172 45.928,45.417 45.878 L 69.750 45.828 69.793 36.331 L 69.836 26.833 45.793 26.852 C 32.569 26.862,21.429 26.933,21.036 27.011 M335.020 34.003 C 338.898 35.080,338.078 40.837,334.047 40.832 C 332.766 40.831,332.141 40.571,331.254 39.671 C 328.735 37.113,331.458 33.013,335.020 34.003 M148.300 34.700 C 148.452 34.852,148.500 37.908,148.500 47.436 C 148.500 59.591,148.525 60.500,148.859 60.500 C 148.945 60.500,150.608 59.019,152.555 57.208 C 155.853 54.142,158.316 51.890,162.693 47.937 L 164.470 46.333 167.443 46.336 C 171.024 46.339,171.124 46.378,170.077 47.352 C 169.645 47.754,168.269 49.097,167.021 50.336 C 165.772 51.575,163.419 53.891,161.792 55.483 C 160.165 57.075,158.833 58.414,158.833 58.458 C 158.833 58.581,159.960 60.115,161.007 61.417 C 161.924 62.556,165.841 67.506,167.273 69.333 C 167.668 69.837,168.687 71.138,169.537 72.223 C 171.542 74.783,172.053 75.502,171.944 75.611 C 171.895 75.660,170.453 75.699,168.740 75.698 L 165.625 75.696 164.920 74.890 C 164.533 74.446,163.549 73.247,162.733 72.226 C 161.917 71.204,160.725 69.710,160.083 68.906 C 159.442 68.102,158.579 67.032,158.167 66.528 C 157.754 66.025,157.229 65.368,157.000 65.070 C 155.796 63.502,154.783 62.333,154.629 62.333 C 154.371 62.333,149.108 67.099,148.750 67.657 C 148.658 67.801,148.546 69.657,148.500 71.816 L 148.417 75.716 145.958 75.704 C 144.606 75.697,143.425 75.686,143.333 75.679 C 143.223 75.671,143.167 68.716,143.167 55.171 L 143.167 34.676 145.542 34.625 C 146.848 34.596,147.958 34.557,148.008 34.537 C 148.059 34.517,148.190 34.590,148.300 34.700 M221.668 50.812 C 221.669 67.194,221.708 68.274,222.339 69.510 C 223.178 71.156,225.887 71.995,227.977 71.258 C 228.878 70.940,228.924 71.037,229.067 73.537 C 229.194 75.748,229.373 75.455,227.667 75.828 C 222.774 76.897,218.457 74.895,216.897 70.833 L 216.417 69.583 216.371 52.129 L 216.326 34.676 218.788 34.629 C 220.142 34.604,221.344 34.649,221.458 34.729 C 221.623 34.843,221.667 38.252,221.668 50.812 M85.207 47.693 L 85.250 60.719 90.721 55.734 C 93.730 52.993,97.276 49.756,98.602 48.542 L 101.013 46.333 104.080 46.333 C 105.780 46.333,107.189 46.402,107.242 46.488 C 107.295 46.572,106.163 47.791,104.728 49.196 C 103.293 50.601,100.589 53.252,98.718 55.089 L 95.318 58.428 96.617 60.149 C 98.119 62.139,98.393 62.490,99.757 64.174 C 100.311 64.857,101.082 65.829,101.470 66.333 C 101.858 66.837,102.625 67.813,103.174 68.500 C 103.723 69.188,104.583 70.275,105.086 70.917 C 105.588 71.558,106.299 72.458,106.666 72.917 C 107.033 73.375,107.636 74.181,108.006 74.708 L 108.679 75.667 106.027 75.667 C 104.568 75.667,103.146 75.713,102.865 75.769 C 102.207 75.900,102.553 76.268,98.069 70.667 C 97.005 69.337,95.410 67.360,94.525 66.273 C 93.641 65.186,92.632 63.913,92.284 63.445 C 91.227 62.023,91.201 62.022,89.741 63.419 C 89.117 64.016,87.834 65.221,86.890 66.097 L 85.173 67.689 85.128 71.705 L 85.083 75.721 82.833 75.696 C 81.596 75.683,80.415 75.671,80.208 75.669 L 79.833 75.667 79.833 55.167 L 79.833 34.667 82.499 34.667 L 85.165 34.667 85.207 47.693 M375.417 55.167 L 375.417 75.583 372.917 75.675 C 369.917 75.785,370.262 76.041,370.191 73.653 C 370.121 71.323,370.212 71.385,368.838 72.734 C 363.317 78.154,352.473 76.877,347.745 70.252 C 344.096 65.139,344.021 57.321,347.569 52.037 C 352.227 45.101,363.227 43.786,369.042 49.469 C 369.569 49.985,370.004 50.334,370.010 50.245 C 370.015 50.156,370.011 46.933,370.001 43.083 C 369.991 39.233,370.034 35.763,370.096 35.371 L 370.211 34.658 372.814 34.704 L 375.417 34.750 375.417 55.167 M265.723 46.270 C 269.204 46.957,272.099 48.745,273.866 51.301 C 274.477 52.185,274.431 52.312,273.220 53.089 C 272.686 53.432,271.870 53.964,271.404 54.273 C 270.346 54.975,270.572 55.044,269.156 53.583 C 266.100 50.432,261.640 49.786,257.419 51.882 C 250.234 55.451,250.843 67.900,258.334 70.588 C 262.475 72.074,266.370 71.314,269.182 68.470 L 270.448 67.190 272.266 68.345 C 273.265 68.980,274.186 69.563,274.310 69.642 C 274.491 69.755,274.429 69.936,274.014 70.517 C 268.570 78.128,255.460 77.939,249.760 70.167 C 246.428 65.623,246.032 58.324,248.847 53.333 C 252.014 47.721,258.759 44.898,265.723 46.270 M298.633 46.427 C 305.966 48.152,310.053 53.788,309.791 61.816 C 309.538 69.582,304.255 75.198,296.464 75.980 C 286.865 76.945,279.749 70.976,279.375 61.647 C 278.948 51.006,287.928 43.909,298.633 46.427 M127.692 46.325 C 129.820 46.690,131.443 47.156,132.917 47.824 C 134.500 48.542,134.495 48.511,133.338 50.658 C 132.785 51.683,132.333 52.592,132.333 52.678 C 132.333 52.960,131.840 52.840,130.956 52.342 C 126.215 49.669,118.621 50.144,117.094 53.208 C 115.604 56.198,117.611 57.899,123.917 58.991 C 132.680 60.507,135.239 62.393,135.239 67.333 C 135.239 71.151,132.893 73.985,128.692 75.242 C 123.642 76.754,115.847 75.970,111.667 73.531 C 110.292 72.728,110.293 72.755,111.507 70.444 C 112.513 68.528,112.766 68.267,113.158 68.739 C 113.267 68.871,114.157 69.315,115.136 69.727 C 121.909 72.573,129.303 71.718,129.894 68.018 C 130.248 65.805,128.753 64.748,124.000 63.851 C 115.223 62.194,113.398 61.324,111.884 58.076 C 111.185 56.578,111.196 53.462,111.906 51.769 C 113.795 47.265,120.232 45.044,127.692 46.325 M182.843 55.583 C 182.946 65.746,182.944 65.723,184.086 67.767 C 186.948 72.884,196.169 72.231,198.661 66.735 C 199.776 64.276,199.729 64.744,199.827 55.167 L 199.917 46.417 202.167 46.369 C 203.404 46.342,204.585 46.362,204.792 46.414 L 205.167 46.506 205.167 61.073 C 205.167 70.442,205.108 75.659,205.003 75.694 C 204.913 75.725,203.770 75.712,202.462 75.667 L 200.083 75.583 200.083 73.807 C 200.083 71.617,200.109 71.640,198.906 72.759 C 193.556 77.732,183.575 77.016,179.646 71.377 C 177.713 68.604,177.500 67.044,177.500 55.657 L 177.500 46.325 180.125 46.371 L 182.750 46.417 182.843 55.583 M336.467 46.533 C 336.692 46.758,336.745 74.824,336.522 75.392 C 336.374 75.768,331.535 75.826,331.305 75.455 C 331.157 75.215,331.116 46.992,331.264 46.608 C 331.398 46.258,336.124 46.191,336.467 46.533 M292.724 50.838 C 282.247 52.723,281.962 68.927,292.368 71.069 C 298.144 72.258,303.188 68.996,304.263 63.376 C 305.720 55.762,299.986 49.532,292.724 50.838 M358.417 50.835 C 347.915 52.730,347.609 68.934,358.035 71.070 C 364.751 72.446,369.910 68.109,369.915 61.083 C 369.919 54.153,364.887 49.668,358.417 50.835 M39.994 60.655 C 40.320 61.264,39.799 61.521,38.309 61.485 C 37.584 61.467,36.952 61.492,36.904 61.541 C 36.855 61.589,36.821 66.656,36.829 72.801 C 36.842 84.455,36.809 85.333,36.352 85.333 C 36.203 85.333,34.922 84.508,33.508 83.500 C 30.512 81.365,30.890 81.457,29.417 82.508 C 28.775 82.966,27.837 83.613,27.333 83.946 C 26.829 84.279,26.140 84.768,25.801 85.032 C 24.796 85.818,24.821 86.118,24.830 73.361 C 24.839 60.166,24.978 61.235,23.287 61.434 C 21.820 61.606,20.990 61.198,21.518 60.562 C 21.866 60.142,39.767 60.232,39.994 60.655 M240.103 69.042 C 243.176 71.105,241.756 76.010,238.090 75.996 C 235.819 75.988,234.346 74.539,234.337 72.305 C 234.325 69.229,237.611 67.369,240.103 69.042 M320.974 69.042 C 323.343 70.457,323.214 74.474,320.762 75.661 C 319.081 76.475,316.876 75.937,315.899 74.475 C 313.582 71.008,317.408 66.911,320.974 69.042 M73.749 69.687 C 76.371 70.415,76.838 74.156,74.468 75.449 C 73.922 75.747,41.695 76.035,40.542 75.752 C 40.168 75.661,39.923 69.966,40.278 69.611 C 40.480 69.409,73.015 69.483,73.749 69.687 " stroke="none" fill="none" fill-rule="evenodd">
</path>
<path id="path2" d="M21.518 60.562 C 20.990 61.198,21.820 61.606,23.287 61.434 C 24.978 61.235,24.839 60.166,24.830 73.361 C 24.821 86.118,24.796 85.818,25.801 85.032 C 26.140 84.768,26.829 84.279,27.333 83.946 C 27.837 83.613,28.775 82.966,29.417 82.508 C 30.890 81.457,30.512 81.365,33.508 83.500 C 34.922 84.508,36.203 85.333,36.352 85.333 C 36.809 85.333,36.842 84.455,36.829 72.801 C 36.821 66.656,36.855 61.589,36.904 61.541 C 36.952 61.492,37.584 61.467,38.309 61.485 C 39.799 61.521,40.320 61.264,39.994 60.655 C 39.767 60.232,21.866 60.142,21.518 60.562 " stroke="none" fill="#e47317" fill-rule="evenodd">
</path>
</g>
</svg>
