<svg id="svg" version="1.1" xmlns="http://www.w3.org/2000/svg" xmlns:xlink="http://www.w3.org/1999/xlink" width="400" height="91.42857142857143" viewBox="0, 0, 400,91.42857142857143">
<g id="svgg">
<path id="path0" d="M21.417 20.683 C 14.254 21.577,8.655 27.392,8.191 34.417 C 7.886 39.025,8.113 62.835,8.474 64.196 C 10.071 70.215,15.490 75.320,20.526 75.550 L 21.250 75.583 21.250 72.507 L 21.250 69.431 20.553 69.229 C 13.543 67.200,12.217 57.160,18.477 53.516 C 20.861 52.127,17.983 52.260,47.696 52.167 L 74.142 52.083 74.613 51.735 C 74.872 51.543,75.308 51.056,75.583 50.651 L 76.083 49.917 76.083 36.404 L 76.083 22.890 75.583 22.085 C 75.272 21.584,74.831 21.149,74.417 20.932 L 73.750 20.583 48.083 20.571 C 33.967 20.564,21.967 20.614,21.417 20.683 M69.793 36.331 L 69.750 45.828 45.417 45.878 C 21.172 45.928,21.079 45.930,19.833 46.283 C 17.917 46.827,16.675 47.322,15.636 47.956 C 15.115 48.273,14.607 48.483,14.506 48.420 C 14.280 48.281,14.289 35.640,14.516 34.000 C 14.953 30.844,17.965 27.616,21.036 27.011 C 21.429 26.933,32.569 26.862,45.793 26.852 L 69.836 26.833 69.793 36.331 M332.585 34.100 C 331.041 34.665,330.250 35.971,330.365 37.768 C 330.581 41.173,335.743 42.042,337.185 38.917 C 338.569 35.918,335.733 32.948,332.585 34.100 M145.542 34.625 L 143.167 34.676 143.167 55.171 C 143.167 68.716,143.223 75.671,143.333 75.679 C 143.425 75.686,144.606 75.697,145.958 75.704 L 148.417 75.716 148.500 71.816 C 148.546 69.657,148.658 67.801,148.750 67.657 C 149.108 67.099,154.371 62.333,154.629 62.333 C 154.783 62.333,155.796 63.502,157.000 65.070 C 157.229 65.368,157.754 66.025,158.167 66.528 C 158.579 67.032,159.442 68.102,160.083 68.906 C 160.725 69.710,161.917 71.204,162.733 72.226 C 163.549 73.247,164.533 74.446,164.920 74.890 L 165.625 75.696 168.740 75.698 C 170.453 75.699,171.895 75.660,171.944 75.611 C 172.053 75.502,171.542 74.783,169.537 72.223 C 168.687 71.138,167.668 69.837,167.273 69.333 C 165.841 67.506,161.924 62.556,161.007 61.417 C 159.960 60.115,158.833 58.581,158.833 58.458 C 158.833 58.414,160.165 57.075,161.792 55.483 C 163.419 53.891,165.772 51.575,167.021 50.336 C 168.269 49.097,169.645 47.754,170.077 47.352 C 171.124 46.378,171.024 46.339,167.443 46.336 L 164.470 46.333 162.693 47.937 C 158.316 51.890,155.853 54.142,152.555 57.208 C 150.608 59.019,148.945 60.500,148.859 60.500 C 148.525 60.500,148.500 59.591,148.500 47.436 C 148.500 35.149,148.470 34.352,148.008 34.537 C 147.958 34.557,146.848 34.596,145.542 34.625 M218.788 34.629 L 216.326 34.676 216.371 52.129 L 216.417 69.583 216.897 70.833 C 218.457 74.895,222.774 76.897,227.667 75.828 C 229.373 75.455,229.194 75.748,229.067 73.537 C 228.924 71.037,228.878 70.940,227.977 71.258 C 225.887 71.995,223.178 71.156,222.339 69.510 C 221.708 68.274,221.669 67.194,221.668 50.812 C 221.667 38.252,221.623 34.843,221.458 34.729 C 221.344 34.649,220.142 34.604,218.788 34.629 M79.833 55.167 L 79.833 75.667 80.208 75.669 C 80.415 75.671,81.596 75.683,82.833 75.696 L 85.083 75.721 85.128 71.705 L 85.173 67.689 86.890 66.097 C 87.834 65.221,89.117 64.016,89.741 63.419 C 91.201 62.022,91.227 62.023,92.284 63.445 C 92.632 63.913,93.641 65.186,94.525 66.273 C 95.410 67.360,97.005 69.337,98.069 70.667 C 102.553 76.268,102.207 75.900,102.865 75.769 C 103.146 75.713,104.568 75.667,106.027 75.667 L 108.679 75.667 108.006 74.708 C 107.636 74.181,107.033 73.375,106.666 72.917 C 106.299 72.458,105.588 71.558,105.086 70.917 C 104.583 70.275,103.723 69.188,103.174 68.500 C 102.625 67.813,101.858 66.837,101.470 66.333 C 101.082 65.829,100.311 64.857,99.757 64.174 C 98.393 62.490,98.119 62.139,96.617 60.149 L 95.318 58.428 98.718 55.089 C 100.589 53.252,103.293 50.601,104.728 49.196 C 106.163 47.791,107.295 46.572,107.242 46.488 C 107.189 46.402,105.780 46.333,104.080 46.333 L 101.013 46.333 98.602 48.542 C 97.276 49.756,93.730 52.993,90.721 55.734 L 85.250 60.719 85.207 47.693 L 85.165 34.667 82.499 34.667 L 79.833 34.667 79.833 55.167 M370.096 35.371 C 370.034 35.763,369.991 39.233,370.001 43.083 C 370.011 46.933,370.015 50.156,370.010 50.245 C 370.004 50.334,369.569 49.985,369.042 49.469 C 365.325 45.836,359.519 44.914,353.866 47.058 C 342.531 51.356,341.794 69.016,352.721 74.480 C 358.147 77.193,365.058 76.445,368.838 72.734 C 370.212 71.385,370.121 71.323,370.191 73.653 C 370.262 76.041,369.917 75.785,372.917 75.675 L 375.417 75.583 375.417 55.167 L 375.417 34.750 372.814 34.704 L 370.211 34.658 370.096 35.371 M260.583 45.997 C 255.323 46.609,251.180 49.200,248.847 53.333 C 246.032 58.324,246.428 65.623,249.760 70.167 C 255.460 77.939,268.570 78.128,274.014 70.517 C 274.429 69.936,274.491 69.755,274.310 69.642 C 274.186 69.563,273.265 68.980,272.266 68.345 L 270.448 67.190 269.182 68.470 C 266.370 71.314,262.475 72.074,258.334 70.588 C 250.843 67.900,250.234 55.451,257.419 51.882 C 261.640 49.786,266.100 50.432,269.156 53.583 C 270.572 55.044,270.346 54.975,271.404 54.273 C 271.870 53.964,272.686 53.432,273.220 53.089 C 274.431 52.312,274.477 52.185,273.866 51.301 C 271.270 47.546,265.854 45.383,260.583 45.997 M293.250 45.943 C 283.383 46.943,277.501 55.245,279.747 65.000 C 282.554 77.185,299.778 80.208,307.285 69.833 C 310.830 64.935,310.731 56.871,307.064 51.810 C 304.235 47.906,298.387 45.422,293.250 45.943 M119.500 46.351 C 115.703 47.189,113.025 49.100,111.906 51.769 C 111.196 53.462,111.185 56.578,111.884 58.076 C 113.398 61.324,115.223 62.194,124.000 63.851 C 128.098 64.624,129.078 65.112,129.744 66.708 C 131.024 69.777,126.716 72.000,120.944 71.250 C 117.927 70.858,113.816 69.532,113.158 68.739 C 112.766 68.267,112.513 68.528,111.507 70.444 C 110.293 72.755,110.292 72.728,111.667 73.531 C 115.847 75.970,123.642 76.754,128.692 75.242 C 132.893 73.985,135.239 71.151,135.239 67.333 C 135.239 62.393,132.680 60.507,123.917 58.991 C 117.611 57.899,115.604 56.198,117.094 53.208 C 118.621 50.144,126.215 49.669,130.956 52.342 C 131.840 52.840,132.333 52.960,132.333 52.678 C 132.333 52.592,132.785 51.683,133.338 50.658 C 134.495 48.511,134.500 48.542,132.917 47.824 C 129.265 46.168,123.297 45.513,119.500 46.351 M177.500 55.657 C 177.500 67.044,177.713 68.604,179.646 71.377 C 183.575 77.016,193.556 77.732,198.906 72.759 C 200.109 71.640,200.083 71.617,200.083 73.807 L 200.083 75.583 202.462 75.667 C 203.770 75.712,204.913 75.725,205.003 75.694 C 205.108 75.659,205.167 70.442,205.167 61.073 L 205.167 46.506 204.792 46.414 C 204.585 46.362,203.404 46.342,202.167 46.369 L 199.917 46.417 199.827 55.167 C 199.729 64.744,199.776 64.276,198.661 66.735 C 196.169 72.231,186.948 72.884,184.086 67.767 C 182.944 65.723,182.946 65.746,182.843 55.583 L 182.750 46.417 180.125 46.371 L 177.500 46.325 177.500 55.657 M331.264 46.608 C 331.116 46.992,331.157 75.215,331.305 75.455 C 331.535 75.826,336.374 75.768,336.522 75.392 C 336.745 74.824,336.692 46.758,336.467 46.533 C 336.124 46.191,331.398 46.258,331.264 46.608 M297.460 51.083 C 302.386 52.360,305.347 57.711,304.263 63.376 C 302.340 73.426,288.198 74.199,285.232 64.417 C 282.715 56.114,289.275 48.961,297.460 51.083 M363.000 51.086 C 369.435 52.755,372.181 61.152,368.274 67.210 C 364.605 72.897,355.323 72.591,351.840 66.667 C 350.012 63.556,349.891 59.229,351.540 55.928 C 353.606 51.794,358.218 49.845,363.000 51.086 M236.333 68.851 C 232.825 70.958,234.060 75.982,238.090 75.996 C 241.756 76.010,243.176 71.105,240.103 69.042 C 239.072 68.350,237.316 68.261,236.333 68.851 M317.151 68.885 C 314.602 70.219,314.608 74.338,317.160 75.625 C 320.528 77.323,323.844 73.976,322.273 70.463 C 321.477 68.681,318.998 67.918,317.151 68.885 M40.278 69.611 C 39.923 69.966,40.168 75.661,40.542 75.752 C 41.695 76.035,73.922 75.747,74.468 75.449 C 76.838 74.156,76.371 70.415,73.749 69.687 C 73.015 69.483,40.480 69.409,40.278 69.611 " stroke="none" fill="#3f4c5b" fill-rule="evenodd">
</path>
<path id="path2" d="M21.518 60.562 C 20.990 61.198,21.820 61.606,23.287 61.434 C 24.978 61.235,24.839 60.166,24.830 73.361 C 24.821 86.118,24.796 85.818,25.801 85.032 C 26.140 84.768,26.829 84.279,27.333 83.946 C 27.837 83.613,28.775 82.966,29.417 82.508 C 30.890 81.457,30.512 81.365,33.508 83.500 C 34.922 84.508,36.203 85.333,36.352 85.333 C 36.809 85.333,36.842 84.455,36.829 72.801 C 36.821 66.656,36.855 61.589,36.904 61.541 C 36.952 61.492,37.584 61.467,38.309 61.485 C 39.799 61.521,40.320 61.264,39.994 60.655 C 39.767 60.232,21.866 60.142,21.518 60.562 " stroke="none" fill="#e47317" fill-rule="evenodd">
</path>
</g>
</svg>
